<?xml version="1.0" encoding="UTF-8" standalone="no"?>
<svg
   xmlns:dc="http://purl.org/dc/elements/1.1/"
   xmlns:cc="http://creativecommons.org/ns#"
   xmlns:rdf="http://www.w3.org/1999/02/22-rdf-syntax-ns#"
   xmlns:svg="http://www.w3.org/2000/svg"
   xmlns="http://www.w3.org/2000/svg"
   xmlns:sodipodi="http://sodipodi.sourceforge.net/DTD/sodipodi-0.dtd"
   xmlns:inkscape="http://www.inkscape.org/namespaces/inkscape"
   viewBox="0 0 512 269"
   height="269"
   width="512"
   id="svg2"
   version="1.1"
   sodipodi:docname="200OK.svg"
   inkscape:version="0.92.3 (2405546, 2018-03-11)">
  <sodipodi:namedview
     pagecolor="#ffffff"
     bordercolor="#666666"
     borderopacity="1"
     objecttolerance="10"
     gridtolerance="10"
     guidetolerance="10"
     inkscape:pageopacity="0"
     inkscape:pageshadow="2"
     inkscape:window-width="1747"
     inkscape:window-height="917"
     id="namedview12"
     showgrid="false"
     inkscape:zoom="1.4140625"
     inkscape:cx="245.51183"
     inkscape:cy="41.051422"
     inkscape:window-x="67"
     inkscape:window-y="27"
     inkscape:window-maximized="0"
     inkscape:current-layer="svg2" />
  <metadata
     id="metadata8">
    <rdf:RDF>
      <cc:Work
         rdf:about="">
        <dc:format>image/svg+xml</dc:format>
        <dc:type
           rdf:resource="http://purl.org/dc/dcmitype/StillImage" />
        <dc:title />
      </cc:Work>
    </rdf:RDF>
  </metadata>
  <defs
     id="defs6" />
  <g
     id="g10">
    <g
       id="g837">
      <path
         id="path847"
         d="m 372.78352,240.2616 c 2.90594,-0.20265 7.40594,-0.20052 10,0.005 2.59406,0.20525 0.21648,0.37104 -5.28352,0.36844 -5.5,-0.003 -7.62242,-0.17053 -4.71648,-0.37317 z M 362.25,239.31067 c 0.9625,-0.25152 2.5375,-0.25152 3.5,0 0.9625,0.25153 0.175,0.45733 -1.75,0.45733 -1.925,0 -2.7125,-0.2058 -1.75,-0.45733 z m 27,0 c 0.9625,-0.25152 2.5375,-0.25152 3.5,0 0.9625,0.25153 0.175,0.45733 -1.75,0.45733 -1.925,0 -2.7125,-0.2058 -1.75,-0.45733 z m -32.4375,-0.99378 c 0.72187,-0.28887 1.58438,-0.25335 1.91667,0.0789 0.33229,0.33229 -0.25834,0.56864 -1.3125,0.52522 -1.16495,-0.048 -1.4019,-0.28494 -0.60417,-0.60416 z m -5,-1 c 0.72187,-0.28887 1.58438,-0.25335 1.91667,0.0789 0.33229,0.33229 -0.25834,0.56864 -1.3125,0.52522 -1.16495,-0.048 -1.4019,-0.28494 -0.60417,-0.60416 z m 50,0 c 0.72187,-0.28887 1.58438,-0.25335 1.91667,0.0789 0.33229,0.33229 -0.25834,0.56864 -1.3125,0.52522 -1.16495,-0.048 -1.4019,-0.28494 -0.60417,-0.60416 z M 345.5,236 c -1.26064,-0.54172 -1.44548,-0.85943 -0.5,-0.85943 0.825,0 2.4,0.38674 3.5,0.85943 1.26064,0.54172 1.44548,0.85943 0.5,0.85943 -0.825,0 -2.4,-0.38674 -3.5,-0.85943 z m 61,0 c 2.74909,-1.18132 4.32797,-1.18132 2.5,0 -0.825,0.53316 -2.175,0.94464 -3,0.9144 -0.98906,-0.0362 -0.81874,-0.34772 0.5,-0.9144 z M 336,232.5 c -1.375,-0.78602 -2.05,-1.42913 -1.5,-1.42913 0.55,0 2.125,0.64311 3.5,1.42913 1.375,0.78602 2.05,1.42913 1.5,1.42913 -0.55,0 -2.125,-0.64311 -3.5,-1.42913 z m 82,-0.5 c 0.825,-0.53316 1.95,-0.96937 2.5,-0.96937 0.55,0 0.325,0.43621 -0.5,0.96937 -0.825,0.53316 -1.95,0.96937 -2.5,0.96937 -0.55,0 -0.325,-0.43621 0.5,-0.96937 z m 10,-4.42963 c 0,-0.275 0.9,-0.98167 2,-1.57037 1.1,-0.5887 2,-0.84537 2,-0.57037 0,0.275 -0.9,0.98167 -2,1.57037 -1.1,0.5887 -2,0.84537 -2,0.57037 z m -106.75,-2.68542 c -3.40851,-2.18287 -4.51156,-3.64875 -1.5,-1.99341 2.29443,1.26116 5.88883,4.0407 5.25,4.05981 -0.275,0.008 -1.9625,-0.92165 -3.75,-2.0664 z M 314.87244,220.25 c -1.24387,-1.58606 -1.2085,-1.62143 0.37756,-0.37756 0.9625,0.75485 1.75,1.54235 1.75,1.75 0,0.82304 -0.82119,0.29331 -2.12756,-1.37244 z M 442.5,217.59923 c 2.2,-1.99336 4.9,-4.10862 6,-4.70059 2.3457,-1.26233 -2.64844,3.17879 -7,6.22487 -1.95841,1.37089 -1.61122,0.84166 1,-1.52428 z M 310.87244,217.25 c -1.24387,-1.58606 -1.2085,-1.62143 0.37756,-0.37756 1.66575,1.30637 2.19548,2.12756 1.37244,2.12756 -0.20765,0 -0.99515,-0.7875 -1.75,-1.75 z m -8.41003,-7.5 -4.96241,-5.25 5.25,4.96241 c 2.8875,2.72932 5.25,5.09182 5.25,5.25 0,0.74619 -0.92643,-0.084 -5.53759,-4.96241 z M 451,210.62244 c 0,-0.20765 0.7875,-0.99515 1.75,-1.75 1.58606,-1.24387 1.62143,-1.2085 0.37756,0.37756 C 451.82119,210.91575 451,211.44548 451,210.62244 Z m 5.04264,-5.33764 c 0.0234,-0.43164 1.89719,-2.8098 4.16386,-5.2848 4.29369,-4.68832 3.38091,-2.91318 -1.43196,2.7848 -1.526,1.80663 -2.75535,2.93163 -2.7319,2.5 z M 293.86038,200.25 c -2.87694,-3.47315 -4.09587,-5.25 -3.60151,-5.25 0.27706,0 1.70506,1.575 3.17333,3.5 2.72472,3.57229 3.05466,4.92078 0.42818,1.75 z M 469,187 c 0.5887,-1.1 1.29537,-2 1.57037,-2 0.275,0 0.0183,0.9 -0.57037,2 -0.5887,1.1 -1.29537,2 -1.57037,2 -0.275,0 -0.0183,-0.9 0.57037,-2 z m -185.54112,-2.06653 c -0.36253,-0.58659 -0.44468,-1.281 -0.18255,-1.54313 0.26212,-0.26213 0.74306,0.21781 1.06875,1.06653 0.67618,1.76211 0.0999,2.07206 -0.8862,0.4766 z M 45.75,182.25202 c 8.3875,-0.16726 22.1125,-0.16726 30.5,0 8.3875,0.16726 1.525,0.3041 -15.25,0.3041 -16.775,0 -23.6375,-0.13684 -15.25,-0.3041 z m 92,0.0246 c 1.7875,-0.22182 4.7125,-0.22182 6.5,0 1.7875,0.22183 0.325,0.40333 -3.25,0.40333 -3.575,0 -5.0375,-0.1815 -3.25,-0.40333 z m 83,0 c 1.7875,-0.22182 4.7125,-0.22182 6.5,0 1.7875,0.22183 0.325,0.40333 -3.25,0.40333 -3.575,0 -5.0375,-0.1815 -3.25,-0.40333 z m 160.92264,-3e-4 c -0.26284,-0.42696 -0.79248,-2.87827 -1.17697,-5.44734 l -0.69908,-4.67104 4.35171,-0.86036 4.3517,-0.86036 0.26203,-37.7186 L 389.02405,95 H 384.51203 380 V 89.5 84 h 15.36408 15.36407 l 0.63098,4.603493 C 412.10393,94.037401 411.67709,95 408.52277,95 402.903,95 403,94.638062 403,115.60699 c 0,10.66615 0.3375,19.3596 0.75,19.31877 0.74786,-0.074 31.45031,-37.471088 32.08333,-39.079054 C 436.01667,95.381018 434.59097,95 432.66512,95 426.75474,95 426,94.308457 426,88.893011 V 84 h 16.05226 16.05226 l -0.30226,5.209362 c -0.25797,4.445991 -0.63106,5.288586 -2.54607,5.75 -1.3214,0.318387 -7.81936,7.240108 -15.80667,16.837478 l -13.56286,16.29684 10.73636,18.70316 c 13.82001,24.075 13.65305,23.84477 17.86411,24.63477 3.51064,0.6586 3.51287,0.6625 3.51287,6.14992 v 5.49089 l -9.75,-0.28621 -9.75,-0.28621 -11,-20.72417 c -6.05,-11.39829 -11.3599,-20.61583 -11.79979,-20.4834 -0.43988,0.13242 -3.48214,3.38329 -6.76058,7.22417 l -5.9608,6.9834 0.26058,7.47123 0.26059,7.47124 4.29988,0.84748 4.29987,0.84748 -0.29987,5.18128 L 411.5,182.5 l -14.67473,0.2763 c -8.0711,0.15197 -14.88978,-0.073 -15.15263,-0.5 z m -100.71848,-2.36195 c -0.61391,-1.1471 -0.92784,-2.274 -0.69762,-2.50422 0.23022,-0.23022 0.93203,0.70832 1.55958,2.08564 1.37807,3.02454 0.70709,3.35038 -0.86196,0.41858 z m -251.403357,-4.42414 -0.676284,-4.50979 10.021376,-10.74021 c 12.437839,-13.33001 23.253496,-26.76331 27.250801,-33.84615 3.055027,-5.41321 4.347317,-6.90937 3.147516,-3.64406 -2.229582,6.0679 -13.825575,21.00277 -29.690422,38.2393 l -9.654564,10.48931 0.638931,4.26069 c 0.351412,2.34339 0.413931,4.2607 0.138931,4.2607 -0.275,0 -0.804328,-2.0294 -1.176285,-4.50979 z m 94.956277,3.52124 c -0.35034,-0.56686 0.0511,-0.7345 0.94098,-0.39301 1.73242,0.66479 2.04939,1.38156 0.61096,1.38156 -0.51754,0 -1.21592,-0.44485 -1.55194,-0.98855 z m 29.57625,0.624 c 0.22917,-0.2005 1.54167,-0.90032 2.91667,-1.55516 2.35727,-1.12265 2.38918,-1.10183 0.55887,0.36454 -1.593,1.27626 -4.84786,2.39128 -3.47554,1.19062 z m 53.42375,-0.624 c -0.35034,-0.56686 0.0511,-0.7345 0.94098,-0.39301 1.73242,0.66479 2.04939,1.38156 0.61096,1.38156 -0.51754,0 -1.21592,-0.44485 -1.55194,-0.98855 z M 91.252183,175.5 c 0.0111,-2.2 0.215885,-2.98225 0.455078,-1.73834 0.239193,1.24391 0.230112,3.04391 -0.02018,4 C 91.436788,178.71775 91.241084,177.7 91.252183,175.5 Z m 112.620257,0.75 c -1.24387,-1.58606 -1.2085,-1.62143 0.37756,-0.37756 1.66575,1.30637 2.19548,2.12756 1.37244,2.12756 -0.20765,0 -0.99515,-0.7875 -1.75,-1.75 z m 270.15819,1.25 c 0,-0.55 0.43621,-1.675 0.96937,-2.5 0.53316,-0.825 0.96937,-1.05 0.96937,-0.5 0,0.55 -0.43621,1.675 -0.96937,2.5 -0.53316,0.825 -0.96937,1.05 -0.96937,0.5 z M 243,176.68709 c 0,-0.1721 1.4625,-1.6346 3.25,-3.25 l 3.25,-2.93709 -2.93709,3.25 C 243.82513,176.77946 243,177.45965 243,176.68709 Z M 162.5,174 c 0.99549,-1.1 2.03498,-2 2.30998,-2 0.275,0 -0.31449,0.9 -1.30998,2 -0.99549,1.1 -2.03498,2 -2.30998,2 -0.275,0 0.31449,-0.9 1.30998,-2 z m 35.37244,-3.75 c -1.24387,-1.58606 -1.2085,-1.62143 0.37756,-0.37756 0.9625,0.75485 1.75,1.54235 1.75,1.75 0,0.82304 -0.82119,0.29331 -2.12756,-1.37244 z m 78.7511,-0.78866 c -0.34295,-0.8937 -0.59502,-2.15061 -0.56015,-2.79313 0.0349,-0.64251 0.49453,-0.0904 1.02148,1.22697 0.52695,1.31735 0.77902,2.57426 0.56015,2.79313 -0.21887,0.21887 -0.67854,-0.33327 -1.02148,-1.22697 z M 92.232003,167 c 0,-1.925 0.205795,-2.7125 0.457323,-1.75 0.251527,0.9625 0.251527,2.5375 0,3.5 -0.251528,0.9625 -0.457323,0.175 -0.457323,-1.75 z m 42.788557,1.88396 c -9.28218,-3.70347 -13.991,-15.78059 -13.991,-35.88396 0,-24.36155 6.57585,-36.986375 19.2701,-36.996262 11.39253,-0.0089 17.48345,8.324252 19.75802,27.031372 2.47809,20.381 -2.47628,39.5287 -11.55768,44.66823 -4.21334,2.3845 -9.33729,2.83329 -13.47944,1.18062 z M 217.5,168.58836 c -9.54173,-4.24086 -14.18146,-18.21755 -13.23175,-39.8592 0.56344,-12.83932 2.10815,-19.11217 6.39044,-25.95066 3.29599,-5.263442 7.33321,-7.091801 14.51277,-6.572479 4.9747,0.359838 6.36325,0.919909 9.27319,3.740334 6.98695,6.772015 10.22744,20.149785 9.2177,38.053645 -1.17294,20.79759 -8.20331,32.10011 -19.88023,31.96086 -1.80517,-0.0215 -4.63212,-0.63916 -6.28212,-1.3725 z m 33.01128,-0.96524 C 251.45659,166.18041 252.4191,165 252.65019,165 c 0.72338,0 -1.6049,3.85397 -2.75929,4.56743 -0.6041,0.37335 -0.32492,-0.50159 0.62038,-1.94431 z m 71.50928,1.26084 c -6.20026,-2.47382 -10.30599,-9.84504 -12.50392,-22.44886 -1.97385,-11.3189 -1.89729,-16.96347 0.37971,-27.99602 3.34395,-16.20214 8.74052,-22.867651 18.51423,-22.867651 14.24582,0 21.70359,15.716291 20.22845,42.628841 -1.13916,20.78277 -7.98017,31.89552 -19.53691,31.73634 -2.53117,-0.0349 -5.71787,-0.50855 -7.08156,-1.05265 z M 53.533619,165.75 c 1.599291,-1.7875 3.595982,-3.925 4.437091,-4.75 8.755034,-8.58735 21.01488,-24.70561 26.241346,-34.5 2.054429,-3.85 3.747165,-6.61581 3.761635,-6.14623 0.06083,1.97411 -7.403954,14.72567 -12.955145,22.13034 -3.292074,4.39126 -9.64789,11.95528 -14.124034,16.80893 l -8.138444,8.82482 12.623787,-0.30893 c 6.943082,-0.16991 12.622967,0.0286 12.621966,0.44107 -0.001,0.4125 -6.161012,0.75 -13.688912,0.75 H 50.625818 Z M 112,166 c -0.5887,-1.1 -0.84537,-2 -0.57037,-2 0.275,0 0.98167,0.9 1.57037,2 0.5887,1.1 0.84537,2 0.57037,2 -0.275,0 -0.98167,-0.9 -1.57037,-2 z m -33.426786,-2 c 0.367791,-1.375 1.085766,-3.175 1.595498,-4 0.644109,-1.04249 0.722824,-0.73748 0.258074,1 -0.367791,1.375 -1.085766,3.175 -1.595498,4 -0.644109,1.04249 -0.722824,0.73748 -0.258074,-1 z m 90.991076,-0.29313 c 0.37553,-0.98622 0.93469,-1.54122 1.24258,-1.23333 0.30789,0.30789 6.4e-4,1.11479 -0.68278,1.79313 -0.98762,0.98026 -1.10248,0.8654 -0.5598,-0.5598 z m 309.51466,-0.2902 c 0.048,-1.16495 0.28494,-1.4019 0.60416,-0.60417 0.28887,0.72187 0.25335,1.58437 -0.0789,1.91667 -0.33229,0.33229 -0.56864,-0.25834 -0.52522,-1.3125 z M 253.03063,163.5 c 0,-0.55 0.43621,-1.675 0.96937,-2.5 0.53316,-0.825 0.96937,-1.05 0.96937,-0.5 0,0.55 -0.43621,1.675 -0.96937,2.5 -0.53316,0.825 -0.96937,1.05 -0.96937,0.5 z m -159.835681,-5 c 0.02038,-1.65 0.244498,-2.20394 0.498042,-1.23097 0.253543,0.97297 0.236869,2.32297 -0.03705,3 C 93.382014,160.94606 93.174569,160.15 93.194949,158.5 Z m 386.884001,0.91667 c 0.048,-1.16495 0.28494,-1.4019 0.60416,-0.60417 0.28887,0.72187 0.25335,1.58437 -0.0789,1.91667 -0.33229,0.33229 -0.56864,-0.25834 -0.52522,-1.3125 z M 81.46907,156.66821 C 81.761081,155.66073 82,154.42323 82,153.91821 c 0,-0.50501 2.8125,-0.83312 6.25,-0.72913 l 6.25,0.18909 -5.617692,0.35687 c -4.566563,0.2901 -5.835346,0.76927 -6.78093,2.56092 -0.74001,1.40213 -0.970066,1.53757 -0.632308,0.37225 z m 191.2028,-1.55884 c -0.36953,-1.84765 -0.62257,-4.31562 -0.5623,-5.48437 0.0603,-1.16875 0.50805,-0.1 0.99508,2.375 0.48704,2.475 0.74008,4.94297 0.56231,5.48437 -0.17777,0.54141 -0.62555,-0.52734 -0.99509,-2.375 z m -99.59292,-0.6927 c 0.048,-1.16495 0.28494,-1.4019 0.60416,-0.60417 0.28887,0.72187 0.25335,1.58437 -0.0789,1.91667 -0.3323,0.33229 -0.56864,-0.25834 -0.52522,-1.3125 z m -66,-1 c 0.048,-1.16495 0.28494,-1.4019 0.60416,-0.60417 0.28887,0.72187 0.25335,1.58437 -0.0789,1.91667 -0.3323,0.33229 -0.56864,-0.25834 -0.52522,-1.3125 z M 174.15789,150 c 0,-1.375 0.22698,-1.9375 0.50439,-1.25 0.27741,0.6875 0.27741,1.8125 0,2.5 -0.27741,0.6875 -0.50439,0.125 -0.50439,-1.25 z m 82.92106,0.41667 c 0.048,-1.16495 0.28494,-1.4019 0.60416,-0.60417 0.28887,0.72187 0.25335,1.58437 -0.0789,1.91667 -0.33229,0.33229 -0.56864,-0.25834 -0.52522,-1.3125 z M 482.19495,148.5 c 0.0204,-1.65 0.2445,-2.20394 0.49804,-1.23097 0.25354,0.97297 0.23687,2.32297 -0.0371,3 -0.27393,0.67703 -0.48137,-0.11903 -0.46099,-1.76903 z M 189.232,146 c 0,-1.925 0.2058,-2.7125 0.45733,-1.75 0.25152,0.9625 0.25152,2.5375 0,3.5 -0.25153,0.9625 -0.45733,0.175 -0.45733,-1.75 z m 69.02018,-1.5 c 0.0111,-2.2 0.21589,-2.98225 0.45508,-1.73834 0.23919,1.24391 0.23011,3.04391 -0.0202,4 -0.25029,0.95609 -0.446,-0.0617 -0.4349,-2.26166 z M 175.15789,142 c 0,-1.375 0.22698,-1.9375 0.50439,-1.25 0.27741,0.6875 0.27741,1.8125 0,2.5 -0.27741,0.6875 -0.50439,0.125 -0.50439,-1.25 z m 308.21207,-8 c 0,-5.775 0.16528,-8.1375 0.36728,-5.25 0.202,2.8875 0.202,7.6125 0,10.5 -0.202,2.8875 -0.36728,0.525 -0.36728,-5.25 z m -378,-1 c 0,-5.775 0.16528,-8.1375 0.36728,-5.25 0.202,2.8875 0.202,7.6125 0,10.5 -0.202,2.8875 -0.36728,0.525 -0.36728,-5.25 z m 165.88222,6.5 c 0.0111,-2.2 0.21589,-2.98225 0.45508,-1.73834 0.23919,1.24391 0.23011,3.04391 -0.0202,4 -0.25029,0.95609 -0.446,-0.0617 -0.4349,-2.26166 z m -82.88695,-7 c 0.003,-5.5 0.17053,-7.62242 0.37317,-4.71648 0.20265,2.90594 0.20052,7.40594 -0.005,10 -0.20525,2.59406 -0.37104,0.21648 -0.36844,-5.28352 z m 82.88695,-4 c 0.0111,-2.2 0.21589,-2.98225 0.45508,-1.73834 0.23919,1.24391 0.23011,3.04391 -0.0202,4 -0.25029,0.95609 -0.446,-0.0617 -0.4349,-2.26166 z M 175.15789,124 c 0,-1.375 0.22698,-1.9375 0.50439,-1.25 0.27741,0.6875 0.27741,1.8125 0,2.5 -0.27741,0.6875 -0.50439,0.125 -0.50439,-1.25 z m 83.09429,-2.5 c 0.0111,-2.2 0.21589,-2.98225 0.45508,-1.73834 0.23919,1.24391 0.23011,3.04391 -0.0202,4 -0.25029,0.95609 -0.446,-0.0617 -0.4349,-2.26166 z m 223.94277,-1 c 0.0204,-1.65 0.2445,-2.20394 0.49804,-1.23097 0.25354,0.97297 0.23687,2.32297 -0.0371,3 -0.27393,0.67703 -0.48137,-0.11903 -0.46099,-1.76903 z m -293,-1 c 0.0204,-1.65 0.2445,-2.20394 0.49804,-1.23097 0.25354,0.97297 0.23687,2.32297 -0.0371,3 -0.27393,0.67703 -0.48137,-0.11903 -0.46099,-1.76903 z M 70.050492,120 c -0.01121,-0.275 0.628094,-2.3 1.420672,-4.5 0.792577,-2.2 1.444856,-3.1 1.449508,-2 0.007,1.66351 -2.807514,8.03752 -2.87018,6.5 z m 202.167498,-2 c -0.0102,-1.375 0.34166,-3.625 0.78201,-5 0.62738,-1.95899 0.79661,-2.0672 0.78201,-0.5 -0.0103,1.1 -0.36216,3.35 -0.78201,5 -0.68569,2.69472 -0.76527,2.7456 -0.78201,0.5 z m -184.048025,0 c 0.01617,-0.825 0.389683,-2.625 0.830035,-4 0.643629,-2.00973 0.806404,-2.10779 0.830035,-0.5 0.01617,1.1 -0.357349,2.9 -0.830035,4 -0.526534,1.22531 -0.848044,1.41898 -0.830035,0.5 z m 85.952565,-1.5 c -0.0824,-1.1 -0.38139,-3.125 -0.66439,-4.5 l -0.51456,-2.5 1.07114,2.45316 c 0.58913,1.34923 0.8881,3.37423 0.66439,4.5 -0.39626,1.99405 -0.41061,1.99526 -0.55658,0.0468 z m 83.03536,-1.5 c 0,-1.375 0.22698,-1.9375 0.50439,-1.25 0.27741,0.6875 0.27741,1.8125 0,2.5 -0.27741,0.6875 -0.50439,0.125 -0.50439,-1.25 z m -150.01732,-3 c 0,-0.825 0.38674,-2.4 0.85943,-3.5 0.54172,-1.26064 0.85943,-1.44548 0.85943,-0.5 0,0.825 -0.38674,2.4 -0.85943,3.5 -0.54172,1.26064 -0.85943,1.44548 -0.85943,0.5 z m -72.393099,-3.87825 c -8.869161,-4.98257 -10.011047,-6.27439 -1.759267,-1.99027 3.568513,1.85269 7.843513,3.90562 9.5,4.56208 2.181458,0.8645 2.460405,1.19743 1.011796,1.20761 -1.1,0.008 -5.038638,-1.693 -8.752529,-3.77942 z m 444.823959,-0.69318 c -0.36782,-1.46551 -0.47591,-2.85742 -0.24019,-3.09314 0.23571,-0.23571 0.72951,0.77049 1.09733,2.236 0.36782,1.46551 0.47591,2.85742 0.24019,3.09314 -0.23571,0.23571 -0.72951,-0.77049 -1.09733,-2.236 z M 46.076078,106.39922 c -0.04184,-0.60542 0.405285,-2.48161 0.993617,-4.1693 1.759134,-5.046257 12.508582,-8.055418 18.246046,-5.107734 3.423822,1.759025 7.684636,6.094394 7.680521,7.814904 -0.0021,0.86113 -0.880243,0.12539 -1.955778,-1.63854 C 65.732674,94.593448 50.559163,95.043489 47.390426,104 c -0.681049,1.925 -1.272505,3.00465 -1.314348,2.39922 z M 89.11422,104 C 88.882077,100.3302 85.682463,93.891946 82.551716,90.794957 78.840614,87.123871 72.591202,84.23679 65.988055,83.142937 62.344656,82.539385 61.53139,82.194512 63.568499,82.116903 c 4.655231,-0.177354 12.626427,2.517279 17.158683,5.800428 4.605443,3.336166 9.696228,12.542649 8.988649,16.255609 -0.436217,2.28902 -0.446052,2.28619 -0.601611,-0.17294 z m 164.03004,-1.75 c -1.0912,-2.550044 -1.06651,-2.608858 0.33949,-0.80887 0.83394,1.06762 1.51625,2.30512 1.51625,2.75 0,1.51991 -0.67833,0.81036 -1.85574,-1.94113 z M 27,101.29384 c 0,-1.892673 6.748845,-9.847799 10.62674,-12.526149 4.231714,-2.922723 10.565591,-5.797904 12.591141,-5.715585 0.705166,0.02866 -1.001936,0.930844 -3.793559,2.004858 C 40.63141,87.285657 34.052723,92.564076 29.867941,98.340999 28.290574,100.51849 27,101.84727 27,101.29384 Z M 112,99 c 0.5887,-1.1 1.29537,-2 1.57037,-2 0.275,0 0.0183,0.9 -0.57037,2 -0.5887,1.1 -1.29537,2 -1.57037,2 -0.275,0 -0.0183,-0.9 0.57037,-2 z m 53.87244,-3.75 C 164.62857,93.663944 164.66394,93.628574 166.25,94.872445 167.91575,96.178814 168.44548,97 167.62244,97 c -0.20765,0 -0.99515,-0.7875 -1.75,-1.75 z m 309.7511,0.211341 c -0.96498,-2.514694 -0.68031,-3.163555 0.49853,-1.136338 0.58369,1.003751 0.8506,2.035659 0.59313,2.293128 -0.25747,0.257469 -0.74872,-0.263087 -1.09166,-1.15679 z M 118,91.5 c 1.86578,-1.925 3.61733,-3.5 3.89233,-3.5 0.275,0 -1.02655,1.575 -2.89233,3.5 -1.86578,1.925 -3.61733,3.5 -3.89233,3.5 -0.275,0 1.02655,-1.575 2.89233,-3.5 z m 83,0 c 1.29175,-1.375 2.57363,-2.5 2.84863,-2.5 0.275,0 -0.55688,1.125 -1.84863,2.5 -1.29175,1.375 -2.57363,2.5 -2.84863,2.5 -0.275,0 0.55688,-1.125 1.84863,-2.5 z m 78.03063,2 c 0,-0.55 0.43621,-1.675 0.96937,-2.5 0.53316,-0.825 0.96937,-1.05 0.96937,-0.5 0,0.55 -0.43621,1.675 -0.96937,2.5 -0.53316,0.825 -0.96937,1.05 -0.96937,0.5 z M 245.40499,90.75 243.5,88.5 l 2.25,1.904988 C 247.86444,92.195206 248.45524,93 247.65499,93 c -0.18976,0 -1.20226,-1.0125 -2.25,-2.25 z m -86.53255,-2.5 C 157.62857,86.663944 157.66394,86.628574 159.25,87.872445 160.91575,89.178814 161.44548,90 160.62244,90 c -0.20765,0 -0.99515,-0.7875 -1.75,-1.75 z M 471.6954,86.487443 C 470.78073,84.569349 470.23852,83 470.4905,83 c 0.68426,0 3.71992,6.122912 3.26246,6.580373 -0.21698,0.216982 -1.14288,-1.174837 -2.05756,-3.09293 z m -264.25427,0.06772 C 208.50875,85.699825 209.82125,85 210.3578,85 c 1.27054,0 0.70323,0.4619 -2.3578,1.919712 -2.35727,1.122645 -2.38918,1.101832 -0.55887,-0.364546 z M 238,86 c -0.90129,-0.58246 -1.02463,-0.975486 -0.30902,-0.984687 0.65504,-0.0084 1.4691,0.434687 1.80902,0.984687 0.7673,1.241525 0.42112,1.241525 -1.5,0 z m -22.1875,-2.683114 c 0.72187,-0.288871 1.58437,-0.253344 1.91667,0.07895 0.33229,0.332292 -0.25834,0.568641 -1.3125,0.52522 -1.16495,-0.04798 -1.4019,-0.284941 -0.60417,-0.604167 z M 53.25,82.310674 c 0.9625,-0.251527 2.5375,-0.251527 3.5,0 0.9625,0.251528 0.175,0.457323 -1.75,0.457323 -1.925,0 -2.7125,-0.205795 -1.75,-0.457323 z m 86.5625,0.0062 c 0.72187,-0.288871 1.58437,-0.253344 1.91667,0.07895 0.33229,0.332292 -0.25834,0.568641 -1.3125,0.52522 -1.16495,-0.04798 -1.4019,-0.284941 -0.60417,-0.604167 z m 83,0 c 0.72187,-0.288871 1.58437,-0.253344 1.91667,0.07895 0.33229,0.332292 -0.25834,0.568641 -1.3125,0.52522 -1.16495,-0.04798 -1.4019,-0.284941 -0.60417,-0.604167 z M 285,81 c 0.5887,-1.1 1.29537,-2 1.57037,-2 0.275,0 0.0183,0.9 -0.57037,2 -0.5887,1.1 -1.29537,2 -1.57037,2 -0.275,0 -0.0183,-0.9 0.57037,-2 z m 182,-3 c -0.5887,-1.1 -0.84537,-2 -0.57037,-2 0.275,0 0.98167,0.9 1.57037,2 0.5887,1.1 0.84537,2 0.57037,2 -0.275,0 -0.98167,-0.9 -1.57037,-2 z M 287.97019,76.055694 c 0.57231,-1.069369 1.53482,-2.249775 2.13891,-2.623124 0.6041,-0.373349 0.32492,0.501588 -0.62038,1.944306 -2.00162,3.054861 -3.03812,3.518198 -1.51853,0.678818 z M 463.87244,73.25 C 462.62857,71.663944 462.66394,71.628574 464.25,72.872445 465.91575,74.178814 466.44548,75 465.62244,75 c -0.20765,0 -0.99515,-0.7875 -1.75,-1.75 z m -6.80549,-8.52326 C 453.38846,60.510865 452.8514,59.630291 455.40393,62 c 3.3561,3.115726 8.2472,9.037655 7.41416,8.97674 -0.17495,-0.01279 -2.76296,-2.825294 -5.75114,-6.25 z M 296,65.5 c 1.29175,-1.375 2.57363,-2.5 2.84863,-2.5 0.275,0 -0.55688,1.125 -1.84863,2.5 -1.29175,1.375 -2.57363,2.5 -2.84863,2.5 -0.275,0 0.55688,-1.125 1.84863,-2.5 z m 5,-5.877555 c 0,-0.207656 0.7875,-0.995156 1.75,-1.75 1.58606,-1.243871 1.62143,-1.208501 0.37756,0.377555 C 301.82119,59.915748 301,60.445479 301,59.622445 Z M 446.43709,53.75 443.5,50.5 l 3.25,2.937091 c 1.7875,1.6154 3.25,3.0779 3.25,3.25 0,0.772561 -0.82513,0.09236 -3.56291,-2.937091 z M 306,55.687091 c 0,-0.1721 1.4625,-1.6346 3.25,-3.25 L 312.5,49.5 309.56291,52.75 C 306.82513,55.779455 306,56.459652 306,55.687091 Z M 440.87244,49.25 C 439.62857,47.663944 439.66394,47.628574 441.25,48.872445 442.91575,50.178814 443.44548,51 442.62244,51 c -0.20765,0 -0.99515,-0.7875 -1.75,-1.75 z M 315.23465,47.773968 C 318.20389,45.249931 324,41.631504 324,42.301884 c 0,0.228226 -2.5875,2.075849 -5.75,4.105829 -3.1625,2.02998 -4.51941,2.644795 -3.01535,1.366255 z M 433,43.910649 c -2.15377,-1.761676 -2.1961,-1.896346 -0.30569,-0.972386 1.20687,0.58987 2.47092,1.520072 2.80901,2.067114 0.90258,1.460398 0.29641,1.195313 -2.50332,-1.094728 z M 326.44113,40.555166 C 327.50875,39.699825 328.82125,39 329.3578,39 c 1.27054,0 0.70323,0.4619 -2.3578,1.919712 -2.35727,1.122645 -2.38918,1.101832 -0.55887,-0.364546 z M 426,40 c -0.90129,-0.58246 -1.02463,-0.975486 -0.30902,-0.984687 0.65504,-0.0084 1.4691,0.434687 1.80902,0.984687 0.7673,1.241525 0.42112,1.241525 -1.5,0 z m -9,-4 c -0.825,-0.533156 -1.05,-0.969374 -0.5,-0.969374 0.55,0 1.675,0.436218 2.5,0.969374 0.825,0.533156 1.05,0.969374 0.5,0.969374 -0.55,0 -1.675,-0.436218 -2.5,-0.969374 z m -72,-3.5 c 1.925,-0.741314 4.175,-1.347844 5,-1.347844 0.825,0 -0.075,0.60653 -2,1.347844 -1.925,0.741314 -4.175,1.347844 -5,1.347844 -0.825,0 0.075,-0.60653 2,-1.347844 z m 62,0 c -1.925,-0.741314 -2.825,-1.361782 -2,-1.378818 0.825,-0.01704 2.85,0.587181 4.5,1.342703 3.86206,1.768408 2.0657,1.794358 -2.5,0.03612 z m -47.5,-3.47364 c 3.0394,-0.800101 12.18294,-1.331166 11.41667,-0.66309 -0.22917,0.199799 -3.56667,0.608419 -7.41667,0.908046 -4.2458,0.330429 -5.81963,0.234049 -4,-0.244956 z M 388.5,29 l -5,-0.685793 4.5,-0.03879 c 2.475,-0.02133 5.85,0.304727 7.5,0.724581 2.63332,0.670067 2.69444,0.758629 0.5,0.724581 C 394.625,29.703248 391.25,29.377186 388.5,29 Z m -13.23625,-1.717581 c 1.52006,-0.229855 3.77006,-0.223712 5,0.01365 1.22994,0.237362 -0.0138,0.425424 -2.76375,0.417917 -2.75,-0.0075 -3.75631,-0.201713 -2.23625,-0.431567 z"
         style="fill:#d5d4d5"
         inkscape:connector-curvature="0"
         sodipodi:nodetypes="cccccccscccsccccccccccccccccssssssccsssssssssssssssscsccccscccccccsccccscsccscsccsssscscscccccssssccscccsccccccccccccccsssccsscccssscssscccscccccccccsccsscsscsssscsssccscccccccscssssccscssssssscsssssssccsccccscsssscscssccssssscccscccssssccsssssscscscssssssssssscscccccccssssssscsccccccsccscccccccccccccccccssssccccccscccsccscscccsssssssssssscscccccccccscccsssscsccccsccccsccccsccccccccscsccccccccssssssssscccccssssscssccscsssssssccscsscssscscsccsscccscsssssssssssssssccssccssccscccssccsccscccccsssscccccccccccscscssssssccscssccsccsssssssssscssssscsscssccsscsccscsscsccsssssssssssccsccscsssccscssscs" />
      <path
         id="path845"
         d="m 311.87244,217.25 c -1.24387,-1.58606 -1.2085,-1.62143 0.37756,-0.37756 1.66575,1.30637 2.19548,2.12756 1.37244,2.12756 -0.20765,0 -0.99515,-0.7875 -1.75,-1.75 z m -9.77029,-8.64591 c -2.37284,-2.41776 -4.31154,-4.78026 -4.30821,-5.25 0.003,-0.46975 -0.43239,-0.73044 -0.96827,-0.57931 -0.53588,0.15112 -0.68932,-0.18638 -0.34098,-0.75 C 296.83303,201.46115 296.64148,201 296.05902,201 295.47656,201 295,200.31088 295,199.46862 c 0,-0.84227 -0.675,-1.79041 -1.5,-2.10699 -0.825,-0.31659 -1.5,-1.14758 -1.5,-1.84665 0,-0.69907 -1.0125,-2.02176 -2.25,-2.93932 -1.2375,-0.91756 -1.575,-1.38339 -0.75,-1.0352 0.825,0.3482 0.52354,-0.19346 -0.66992,-1.20368 -4.4358,-3.75479 -12.18921,-22.98426 -14.92169,-37.00774 -3.00504,-15.42234 -1.47136,-38.21727 3.54047,-52.6215 7.85575,-22.577803 21.73538,-40.709354 41.57142,-54.306499 22.75242,-15.596255 51.53561,-21.251157 80.67821,-15.850479 14.6809,2.720651 34.78726,12.604526 46.75293,22.982785 7.28827,6.321379 22.20073,23.703372 18.87136,21.996491 -0.72753,-0.372984 -0.44927,0.03022 0.61835,0.896005 C 466.50875,77.291629 466.98524,78 466.5,78 c -0.48524,0 -0.009,0.708371 1.05887,1.574157 1.06762,0.865787 1.26613,1.282416 0.44113,0.925843 -1.00089,-0.432596 -0.92288,-0.174817 0.23446,0.774719 0.95395,0.782669 1.44145,1.71604 1.08333,2.074158 C 468.95967,83.706995 469.17754,84 469.80195,84 c 0.6244,0 0.87771,0.671207 0.56291,1.491571 -0.32156,0.837964 0.10273,1.750629 0.96824,2.082758 0.91264,0.350212 1.29328,1.235744 0.93382,2.172475 -0.39887,1.039441 -0.20983,1.335947 0.55169,0.865303 0.75689,-0.467785 0.95204,-0.177999 0.56295,0.835955 -0.35577,0.927119 -0.0492,1.565332 0.76145,1.585207 0.82077,0.02012 0.42526,0.809503 -1.0009,1.997656 -1.49223,1.2432 -2.12838,2.562475 -1.73275,3.593479 0.34383,0.896001 0.12864,2.227346 -0.4782,2.958536 -0.60684,0.7312 -0.80086,1.81887 -0.43116,2.41706 0.3697,0.59819 0.0942,1.78402 -0.6122,2.63519 -0.70641,0.85117 -1.34877,3.45444 -1.42746,5.78504 -0.0787,2.3306 -0.8348,5.62403 -1.68023,7.31872 -0.84542,1.6947 -1.35374,4.13422 -1.12959,5.42116 0.55186,3.16845 -5.06526,12.66687 -8.19442,13.85658 -1.83576,0.69796 -2.4561,1.67282 -2.4561,3.85978 0,2.20501 -0.80081,3.44182 -3.25,5.01945 -7.64032,4.92148 -9.2349,6.20023 -8.97522,7.19749 0.15112,0.58039 -0.19372,0.76571 -0.76632,0.41182 -0.57259,-0.35388 -0.78219,-1.06233 -0.46575,-1.57433 0.31643,-0.51199 0.20264,-0.9309 -0.25287,-0.9309 -0.4555,0 -2.39456,-2.72781 -4.30902,-6.06181 -1.91445,-3.334 -4.46417,-7.7215 -5.66604,-9.75 -4.2669,-7.20162 -5.33378,-9.5596 -4.57902,-10.12037 0.42033,-0.3123 2.4015,-2.59282 4.40259,-5.06782 2.0011,-2.475 4.4761,-5.47304 5.5,-6.6623 1.02391,-1.18927 5.19818,-6.25177 9.27616,-11.25 5.57922,-6.838258 8.00495,-9.0877 9.7999,-9.0877 2.27207,0 2.37115,-0.273184 2.08549,-5.75 L 457.5,83.5 H 442 426.5 l -0.31049,4.889511 c -0.17077,2.689231 0.0579,5.25785 0.50804,5.708041 0.45019,0.450192 2.6825,0.949912 4.96068,1.110489 4.58198,0.322961 4.57866,0.875583 -0.0368,6.120449 -1.36898,1.55567 -3.98134,4.68014 -5.80525,6.94326 -1.82392,2.26313 -6.85879,8.39712 -11.18862,13.63108 -4.32982,5.23397 -8.37556,10.32201 -8.99054,11.30674 -0.61498,0.98474 -1.4599,1.79043 -1.8776,1.79043 -0.9869,0 -0.99633,-38.97653 -0.009,-39.07431 7.72486,-0.76538 8.48302,-1.416422 7.77423,-6.675838 -0.35206,-2.612419 -0.98687,-5.100178 -1.41068,-5.528355 -0.4238,-0.428176 -7.26023,-0.653176 -15.19205,-0.5 L 380.5,83.5 l -0.2999,5.75 c -0.28254,5.416935 -0.16669,5.750791 2,5.763655 1.26494,0.0075 3.31782,0.286412 4.56195,0.619783 l 2.26205,0.606128 -0.26205,37.098824 -0.26205,37.09882 -4.3517,0.86036 -4.35171,0.86035 0.69908,4.67104 c 0.38449,2.56907 0.90681,5.00854 1.16072,5.42104 0.2539,0.4125 2.83509,0.75 5.73596,0.75 2.90087,0 5.54331,0.26899 5.87208,0.59777 1.28097,1.28097 -0.66294,3.48511 -4.62166,5.24035 -2.27853,1.01027 -4.75049,2.57307 -5.49325,3.4729 -0.74277,0.89983 -2.99277,1.94087 -5,2.31343 -2.00724,0.37256 -5.042,1.73447 -6.74391,3.02646 -2.05424,1.55947 -4.44082,2.34909 -7.09996,2.34909 -2.84851,0 -5.18184,0.85208 -8.07763,2.94978 -3.30348,2.39303 -4.73813,2.8417 -7.60098,2.37712 -2.93354,-0.47604 -4.19926,-0.0418 -7.50206,2.57411 l -3.97312,3.14677 -4.5441,-2.20769 c -4.35243,-2.11457 -4.62628,-2.13331 -6.49274,-0.44418 -1.58982,1.43877 -2.34756,1.55 -4.11502,0.60409 -1.75069,-0.93694 -2.51579,-0.84319 -3.9874,0.48859 -1.35597,1.22715 -2.29238,1.39061 -3.66681,0.64011 -1.90339,-1.03934 -6.92076,-2.47239 -9.0574,-2.58695 -0.66638,-0.0357 -1.76888,-0.62224 -2.45,-1.30336 C 302.15728,205.55728 301.14867,205 300.59705,205 c -0.55162,0 0.75471,1.8 2.90295,4 2.14824,2.2 3.68326,4 3.41116,4 -0.27211,0 -2.43616,-1.97816 -4.80901,-4.39591 z m 40.6225,-29.46889 c 13.44554,-6.87818 20.42332,-22.43395 20.47036,-45.6352 0.0504,-24.86448 -6.59062,-40.029773 -20.68087,-47.226244 -4.2535,-2.172441 -6.31198,-2.546483 -14.01414,-2.546483 -7.70717,0 -9.75787,0.373138 -14.01414,2.549965 -13.69819,7.005796 -20.45113,22.268512 -20.45113,46.222762 0,26.93853 9.20316,44.30861 25.68277,48.47376 5.74128,1.45108 18.5825,0.42491 23.00715,-1.83856 z M 411.5,177.24654 c 0,-5.43741 -0.0702,-5.57635 -3,-5.93778 -5.41334,-0.66782 -5.50116,-0.80447 -5.48082,-8.52738 0.0182,-6.91657 0.19748,-7.48179 3.57785,-11.28138 1.95727,-2.2 4.70205,-5.4625 6.09951,-7.25 2.88568,-3.69108 3.82872,-3.99618 4.63652,-1.5 0.31148,0.9625 2.56063,5.44084 4.99811,9.95186 2.43748,4.51102 4.18512,8.44852 3.88364,8.75 -0.30148,0.30148 0.003,0.54814 0.67754,0.54814 0.67413,0 0.94757,0.45 0.60765,1 -0.33992,0.55 -0.0336,1 0.68076,1 0.71434,0 0.0619,1.14689 -1.4498,2.54865 -1.51174,1.40176 -3.46931,3.64858 -4.35016,4.99293 -0.88085,1.34435 -3.35188,2.96869 -5.49118,3.60964 -3.30844,0.99123 -3.88962,1.58114 -3.88962,3.94805 0,1.53048 -0.3375,2.99245 -0.75,3.24883 -0.4125,0.25637 -0.75,-2.03933 -0.75,-5.10156 z"
         style="fill:#a1008d" />
      <path
         id="path843"
         d="m 361.17902,238.91967 c -9.18885,-1.42051 -26.20061,-7.37275 -34.77098,-12.16601 -8.67441,-4.85145 -14.47706,-9.34427 -23.24587,-17.99858 -7.90776,-7.80451 -8.85676,-9.23856 -3.11557,-4.708 2.44937,1.93289 4.9034,3.52561 5.4534,3.5394 1.83996,0.0461 6.97969,1.52323 8.84579,2.54222 1.37443,0.7505 2.31084,0.58704 3.66681,-0.64011 1.47161,-1.33178 2.23671,-1.42553 3.9874,-0.48859 1.76746,0.94591 2.5252,0.83468 4.11502,-0.60409 1.86646,-1.68913 2.14031,-1.67039 6.49274,0.44418 l 4.5441,2.20769 3.97312,-3.14677 c 3.3028,-2.61586 4.56852,-3.05015 7.50206,-2.57411 2.86285,0.46458 4.2975,0.0159 7.60098,-2.37712 2.89579,-2.0977 5.22912,-2.94978 8.07763,-2.94978 2.65914,0 5.04572,-0.78962 7.09996,-2.34909 1.70191,-1.29199 4.73667,-2.6539 6.74391,-3.02646 2.00723,-0.37256 4.25723,-1.4136 5,-2.31343 0.74276,-0.89983 3.26298,-2.48398 5.60048,-3.52033 2.3375,-1.03635 4.25,-2.31322 4.25,-2.83748 0,-0.52427 -0.004,-1.29071 -0.009,-1.70321 -0.005,-0.4125 4.38263,-0.975 9.75,-1.25 l 9.75884,-0.5 0.30273,-3.10751 c 0.25724,-2.64055 0.8793,-3.28026 4.13963,-4.25707 2.11029,-0.63226 4.5587,-2.25119 5.44092,-3.59763 0.88222,-1.34643 2.60214,-3.37794 3.82205,-4.51446 l 2.21802,-2.06639 2.30885,3.77153 c 1.26987,2.07434 3.51863,6.13403 4.99724,9.02153 l 2.68838,5.25 h 9.79109 9.79109 v -5.45469 -5.45468 l -3.56546,-0.66889 c -2.7102,-0.50844 -4.16398,-1.617 -6.06059,-4.62142 -1.37232,-2.1739 -2.76127,-4.70579 -3.08654,-5.62643 -0.32528,-0.92064 -1.26775,-2.46139 -2.0944,-3.42389 -0.82664,-0.9625 -1.15314,-1.75 -0.72555,-1.75 0.42758,0 0.15983,-0.76138 -0.59502,-1.69196 -0.75484,-0.93058 -0.89188,-1.40466 -0.30454,-1.05352 0.58735,0.35113 2.38735,-0.23987 4,-1.31335 1.61266,-1.07347 4.3946,-2.89384 6.1821,-4.04525 2.44919,-1.57763 3.25,-2.81444 3.25,-5.01945 0,-2.18696 0.62034,-3.16182 2.4561,-3.85978 3.12916,-1.18971 8.74628,-10.68813 8.19442,-13.85658 -0.22415,-1.28694 0.28417,-3.72646 1.12959,-5.42116 0.84543,-1.69469 1.60153,-4.98812 1.68023,-7.31872 0.0787,-2.3306 0.69007,-4.89654 1.35862,-5.70209 0.66855,-0.80556 0.9521,-2.15116 0.63012,-2.99024 -0.32199,-0.83908 -0.1031,-1.82369 0.48642,-2.18803 0.58951,-0.36434 0.8278,-1.647362 0.52952,-2.851155 -0.36795,-1.485009 0.072,-2.56764 1.36837,-3.367274 2.32108,-1.431705 2.94273,-0.310648 6.13368,11.061209 2.93323,10.45341 2.97595,10.71149 3.66084,22.11735 2.69945,44.95514 -24.69381,87.84854 -66.62791,104.32849 -14.97077,5.88346 -38.93825,8.54649 -54.82098,6.09118 z M 293.66667,199.33333 C 293.3,198.96667 293,198.20167 293,197.63333 c 0,-0.6266 0.46577,-0.56756 1.18333,0.15 0.65084,0.65084 0.95084,1.41584 0.66667,1.7 -0.28417,0.28417 -0.81667,0.21667 -1.18333,-0.15 z m -3,-4 C 290.3,194.96667 290,194.20167 290,193.63333 c 0,-0.6266 0.46577,-0.56756 1.18333,0.15 0.65084,0.65084 0.95084,1.41584 0.66667,1.7 -0.28417,0.28417 -0.81667,0.21667 -1.18333,-0.15 z M 200.87244,173.25 c -1.24387,-1.58606 -1.2085,-1.62143 0.37756,-0.37756 1.66575,1.30637 2.19548,2.12756 1.37244,2.12756 -0.20765,0 -0.99515,-0.7875 -1.75,-1.75 z M 120.232,133 c 0,-1.925 0.2058,-2.7125 0.45733,-1.75 0.25152,0.9625 0.25152,2.5375 0,3.5 -0.25153,0.9625 -0.45733,0.175 -0.45733,-1.75 z M 434,96 c -0.90129,-0.58246 -1.02463,-0.975486 -0.30902,-0.984687 0.65504,-0.0084 1.4691,0.434687 1.80902,0.984687 0.7673,1.241525 0.42112,1.241525 -1.5,0 z m -47.1875,-0.683114 c 0.72187,-0.288871 1.58438,-0.253344 1.91667,0.07895 0.33229,0.332292 -0.25834,0.568641 -1.3125,0.52522 -1.16495,-0.04798 -1.4019,-0.284941 -0.60417,-0.604167 z m 85.77095,-3.960014 c -0.9187,-2.394095 -0.20261,-2.577944 1.21288,-0.311394 C 474.46767,92.120465 474.61128,93 474.11546,93 c -0.49581,0 -1.18522,-0.739408 -1.53201,-1.643128 z m -2.12457,-4.423403 c -0.36253,-0.586592 -0.44468,-1.281 -0.18255,-1.543128 0.26212,-0.262129 0.74306,0.21781 1.06875,1.066531 0.67618,1.762107 0.0999,2.072058 -0.8862,0.476597 z M 134.8125,83.316886 c 0.72187,-0.288871 1.58437,-0.253344 1.91667,0.07895 0.33229,0.332292 -0.25834,0.568641 -1.3125,0.52522 -1.16495,-0.04798 -1.4019,-0.284941 -0.60417,-0.604167 z m 253.48321,-0.06102 c 4.28763,-0.187904 11.03763,-0.186758 15,0.0025 3.96236,0.189304 0.45429,0.343044 -7.79571,0.341643 -8.25,-0.0014 -11.49193,-0.156287 -7.20429,-0.34419 z m 45.95429,8.23e-4 c 4.2625,-0.187451 11.2375,-0.187451 15.5,0 4.2625,0.187451 0.775,0.34082 -7.75,0.34082 -8.525,0 -12.0125,-0.153369 -7.75,-0.34082 z"
         style="fill:#91007b" />
      <path
         id="path841"
         d="m 30.670177,176.86297 c -0.695374,-5.87134 -1.770069,-4.272 16.000657,-23.81189 C 64.553216,133.38842 73,119.3111 73,109.17116 c 0,-5.03551 -0.361227,-6.13389 -2.75,-8.36188 -5.589446,-5.213237 -10.887381,-6.138539 -18.259007,-3.188999 -3.717319,1.487376 -4.183567,2.102567 -5.684187,7.499999 C 45.407717,108.35413 44.105429,111 43.412833,111 c -0.692595,0 -4.6706,-1.84005 -8.84001,-4.089 l -7.580745,-4.089 1.753961,-3.016637 C 31.794251,94.562754 40.6443,87.277374 46.753341,84.981713 60.834747,79.690191 78.666956,84.006643 85.358434,94.326436 92.808976,105.81688 90.226324,119.51341 77.123237,138 c -4.206025,5.9341 -15.36493,19.34772 -19.133893,23 -0.851358,0.825 -2.856434,2.9625 -4.455725,4.75 L 50.625818,169 h 13.460877 13.460877 l 2.789109,-7.5 2.789108,-7.5 h 5.544095 c 4.136168,0 5.417497,0.3299 5.045586,1.29909 -0.27418,0.7145 -1.089989,7.0145 -1.812909,14 L 90.58816,182 H 60.933371 31.278582 Z M 160,175.62244 c 0,-0.20765 0.7875,-0.99515 1.75,-1.75 1.58606,-1.24387 1.62143,-1.2085 0.37756,0.37756 C 160.82119,175.91575 160,176.44548 160,175.62244 Z M 117.87244,173.25 c -1.24387,-1.58606 -1.2085,-1.62143 0.37756,-0.37756 0.9625,0.75485 1.75,1.54235 1.75,1.75 0,0.82304 -0.82119,0.29331 -2.12756,-1.37244 z m -11.79349,-28.83333 c 0.048,-1.16495 0.28494,-1.4019 0.60416,-0.60417 0.28887,0.72187 0.25335,1.58437 -0.0789,1.91667 -0.3323,0.33229 -0.56864,-0.25834 -0.52522,-1.3125 z m 54,-4 c 0.048,-1.16495 0.28494,-1.4019 0.60416,-0.60417 0.28887,0.72187 0.25335,1.58437 -0.0789,1.91667 -0.3323,0.33229 -0.56864,-0.25834 -0.52522,-1.3125 z m 98,-2 c 0.048,-1.16495 0.28494,-1.4019 0.60416,-0.60417 0.28887,0.72187 0.25335,1.58437 -0.0789,1.91667 -0.33229,0.33229 -0.56864,-0.25834 -0.52522,-1.3125 z m -138,-1 c 0.048,-1.16495 0.28494,-1.4019 0.60416,-0.60417 0.28887,0.72187 0.25335,1.58437 -0.0789,1.91667 -0.3323,0.33229 -0.56864,-0.25834 -0.52522,-1.3125 z M 175.15789,136 c 0,-1.375 0.22698,-1.9375 0.50439,-1.25 0.27741,0.6875 0.27741,1.8125 0,2.5 -0.27741,0.6875 -0.50439,0.125 -0.50439,-1.25 z m 28.11447,-3 c 0,-2.475 0.19502,-3.4875 0.43337,-2.25 0.23836,1.2375 0.23836,3.2625 0,4.5 -0.23835,1.2375 -0.43337,0.225 -0.43337,-2.25 z m 159.92259,-0.5 c 0.0204,-1.65 0.2445,-2.20394 0.49804,-1.23097 0.25354,0.97297 0.23687,2.32297 -0.0371,3 -0.27393,0.67703 -0.48137,-0.11903 -0.46099,-1.76903 z M 175.15789,129 c 0,-1.375 0.22698,-1.9375 0.50439,-1.25 0.27741,0.6875 0.27741,1.8125 0,2.5 -0.27741,0.6875 -0.50439,0.125 -0.50439,-1.25 z m -55.07894,-0.58333 c 0.048,-1.16495 0.28494,-1.4019 0.60416,-0.60417 0.28887,0.72187 0.25335,1.58437 -0.0789,1.91667 -0.3323,0.33229 -0.56864,-0.25834 -0.52522,-1.3125 z m -14,-8 c 0.048,-1.16495 0.28494,-1.4019 0.60416,-0.60417 0.28887,0.72187 0.25335,1.58437 -0.0789,1.91667 -0.3323,0.33229 -0.56864,-0.25834 -0.52522,-1.3125 z M 234.87244,100.25 c -1.24387,-1.586056 -1.2085,-1.621426 0.37756,-0.377555 1.66575,1.306365 2.19548,2.127555 1.37244,2.127555 -0.20765,0 -0.99515,-0.7875 -1.75,-1.75 z m 9,-10 C 242.62857,88.663944 242.66394,88.628574 244.25,89.872445 245.91575,91.178814 246.44548,92 245.62244,92 c -0.20765,0 -0.99515,-0.7875 -1.75,-1.75 z M 138.75,83.294267 c 1.2375,-0.238353 3.2625,-0.238353 4.5,0 1.2375,0.238353 0.225,0.433369 -2.25,0.433369 -2.475,0 -3.4875,-0.195016 -2.25,-0.433369 z m 83,0 c 1.2375,-0.238353 3.2625,-0.238353 4.5,0 1.2375,0.238353 0.225,0.433369 -2.25,0.433369 -2.475,0 -3.4875,-0.195016 -2.25,-0.433369 z m 106.0625,0.02262 c 0.72187,-0.288871 1.58438,-0.253344 1.91667,0.07895 0.33229,0.332292 -0.25834,0.568641 -1.3125,0.52522 -1.16495,-0.04798 -1.4019,-0.284941 -0.60417,-0.604167 z"
         style="fill:#00678d" />
      <path
         id="path839"
         d="m 132.31005,181.01515 c -10.91832,-2.32013 -19.44244,-11.77253 -23.94973,-26.55786 -2.60614,-8.54895 -2.6039,-35.37272 0.004,-43.92719 3.74285,-12.278928 9.72313,-20.251271 18.13602,-24.177251 6.8059,-3.176056 20.76994,-3.316292 27.5,-0.276173 13.70168,6.189359 21.14595,22.532334 21.14595,46.423324 0,23.62052 -7.34506,40.05541 -20.81844,46.58214 -4.79029,2.3205 -15.69053,3.27748 -22.01746,1.93301 z m 15.09025,-12.40904 c 7.50799,-3.13704 12.28445,-13.92361 13.22189,-29.85865 1.41828,-24.10858 -4.80592,-40.203856 -16.56932,-42.846916 C 129.54355,92.640516 120.61431,106.77406 120.61431,133 c 0,15.61529 2.58125,25.34771 8.53942,32.1973 4.12895,4.74669 11.67193,6.15586 18.24657,3.40881 z M 216,181.12351 c -12.05652,-2.6609 -20.40271,-12.21403 -24.67542,-28.24375 -2.32939,-8.73906 -2.35904,-31.91237 -0.0519,-40.55696 3.51043,-13.153155 10.1322,-22.333999 19.01819,-26.368031 6.45563,-2.930708 20.56318,-2.711476 27.20912,0.422829 13.75944,6.489116 20.86957,22.202732 20.86957,46.122402 0,22.99387 -6.69969,39.00767 -19.156,45.78725 -5.4362,2.95875 -16.52165,4.31318 -23.21357,2.83626 z m 15.63417,-13.04211 c 4.12326,-2.51424 7.68247,-7.41335 9.86693,-13.5814 2.63091,-7.42868 3.2564,-29.9877 1.06898,-38.55377 -3.40927,-13.35091 -8.32923,-19.227968 -17.07008,-20.390793 -5.76604,-0.767075 -10.40024,1.27173 -14.18053,6.238693 -7.97535,10.47891 -10.25053,35.02277 -4.88978,52.74955 1.61504,5.34058 7.46832,13.06461 10.9747,14.48227 3.79598,1.53476 10.94168,1.06043 14.22978,-0.94455 z M 321.5,181.10467 C 309.93755,178.98423 302.00895,170.73196 296.89961,155.5 c -2.08001,-6.20095 -2.34542,-8.8264 -2.32507,-23 0.0197,-13.73914 0.33635,-16.97621 2.24066,-22.90857 3.86363,-12.036056 9.37677,-19.26982 17.6848,-23.204121 7.14497,-3.383529 20.78738,-3.400318 28,-0.03446 13.42552,6.265186 20.5,22.190401 20.5,46.147151 0,23.91252 -7.15626,40.13023 -20.5,46.45767 -4.55303,2.15899 -15.07096,3.23432 -21,2.147 z m 17.63024,-14.66855 c 7.0646,-6.6308 10.50278,-20.5943 9.55853,-38.82017 -0.94509,-18.24196 -6.34137,-29.098957 -15.71808,-31.623843 -12.39862,-3.338601 -20.70479,5.513713 -23.75956,25.321793 -2.62443,17.01759 0.69752,36.30643 7.58558,44.0456 2.90706,3.26627 7.32932,4.69357 13.45431,4.34243 4.73101,-0.27122 6.30584,-0.85045 8.87922,-3.26581 z"
         style="fill:#1d1d1d" />
    </g>
  </g>
</svg>
